<svg width="34" height="34" viewBox="0 0 34 34" fill="none" xmlns="http://www.w3.org/2000/svg">
<circle cx="17" cy="17" r="17" fill="black"/>
<path d="M18.9997 9.2783C18.8175 9.50044 18.7553 9.83521 18.9193 10.1361C19.4799 11.1647 19.7985 12.343 19.7985 13.5969C19.7985 17.6173 16.5197 20.8727 12.4798 20.8727C11.9534 20.8727 11.4406 20.8175 10.9466 20.7129C10.6088 20.6413 10.3016 20.794 10.1369 21.0286C9.96697 21.2707 9.93135 21.6318 10.1682 21.9224C11.6966 23.7985 14.0352 25 16.6564 25C21.2666 25 25 21.2863 25 16.71C25 13.2658 22.8859 10.312 19.8765 9.06009C19.5288 8.91545 19.1877 9.04909 18.9997 9.2783Z" fill="white"/>
</svg>
