<svg width="34" height="34" viewBox="0 0 34 34" fill="none" xmlns="http://www.w3.org/2000/svg">
<circle cx="17" cy="17" r="17" fill="#E5E7E0"/>
<path d="M17 21C19.2091 21 21 19.2091 21 17C21 14.7909 19.2091 13 17 13C14.7909 13 13 14.7909 13 17C13 19.2091 14.7909 21 17 21Z" fill="#1A181F"/>
<path d="M17 9C17.2761 9 17.5 9.22386 17.5 9.5V11.5C17.5 11.7761 17.2761 12 17 12C16.7239 12 16.5 11.7761 16.5 11.5V9.5C16.5 9.22386 16.7239 9 17 9Z" fill="#1A181F"/>
<path d="M17 22C17.2761 22 17.5 22.2239 17.5 22.5V24.5C17.5 24.7761 17.2761 25 17 25C16.7239 25 16.5 24.7761 16.5 24.5V22.5C16.5 22.2239 16.7239 22 17 22Z" fill="#1A181F"/>
<path d="M25 17C25 17.2761 24.7761 17.5 24.5 17.5H22.5C22.2239 17.5 22 17.2761 22 17C22 16.7239 22.2239 16.5 22.5 16.5H24.5C24.7761 16.5 25 16.7239 25 17Z" fill="#1A181F"/>
<path d="M12 17C12 17.2761 11.7761 17.5 11.5 17.5H9.5C9.22386 17.5 9 17.2761 9 17C9 16.7239 9.22386 16.5 9.5 16.5H11.5C11.7761 16.5 12 16.7239 12 17Z" fill="#1A181F"/>
<path d="M22.6569 11.3432C22.8521 11.5384 22.8521 11.855 22.6569 12.0503L21.2426 13.4645C21.0474 13.6598 20.7308 13.6598 20.5355 13.4645C20.3403 13.2692 20.3403 12.9527 20.5355 12.7574L21.9497 11.3432C22.145 11.1479 22.4616 11.1479 22.6569 11.3432Z" fill="#1A181F"/>
<path d="M13.4645 20.5356C13.6597 20.7308 13.6597 21.0474 13.4645 21.2427L12.0503 22.6569C11.855 22.8521 11.5384 22.8521 11.3431 22.6569C11.1479 22.4616 11.1479 22.145 11.3431 21.9498L12.7574 20.5356C12.9526 20.3403 13.2692 20.3403 13.4645 20.5356Z" fill="#1A181F"/>
<path d="M22.6569 22.6569C22.4616 22.8522 22.145 22.8522 21.9497 22.6569L20.5355 21.2427C20.3403 21.0474 20.3403 20.7308 20.5355 20.5356C20.7308 20.3403 21.0474 20.3403 21.2426 20.5356L22.6569 21.9498C22.8521 22.1451 22.8521 22.4616 22.6569 22.6569Z" fill="#1A181F"/>
<path d="M13.4645 13.4645C13.2692 13.6598 12.9526 13.6598 12.7574 13.4645L11.3431 12.0503C11.1479 11.855 11.1479 11.5385 11.3431 11.3432C11.5384 11.1479 11.855 11.1479 12.0503 11.3432L13.4645 12.7574C13.6597 12.9527 13.6597 13.2692 13.4645 13.4645Z" fill="#1A181F"/>
</svg>
